# xmcd CD database file
#
# Track frame offsets:
#	150
#	11765
#	30692
#	46740
#	65702
#	75225
#	95677
#	107227
#	120890
#	134170
#	161440
#	183767
#
# Disc length: 2667 seconds
#
# Revision: 0
# Processed by: cddbd v1.5.1PL0 Copyright (c) Steve Scherf et al.
# Submitted via: CDex 1.60beta1
#
DISCID=940a690c
DTITLE=Tom Hook - Tom Hook And The Swamp Dogs
DYEAR=0
DGENRE=Jazz
TTITLE0=At The Swing Cats Ball
TTITLE1=Carnival Time
TTITLE2=Ball And Chain
TTITLE3=After My Laughter Came Tears
TTITLE4=How Long Must I Wait For You
TTITLE5=Goin' Back To New Orleans
TTITLE6=Doug The Jitterbug
TTITLE7=Who Shot The La La
TTITLE8=Bornea
TTITLE9=Old Folks
TTITLE10=Boogie Woogle Blue Plate
TTITLE11=Music Biznessman
EXTD=YEAR: 0
EXTT0=
EXTT1=
EXTT2=
EXTT3=
EXTT4=
EXTT5=
EXTT6=
EXTT7=
EXTT8=
EXTT9=
EXTT10=
EXTT11=
PLAYORDER=
